<svg width="300" height="300" viewBox="0 0 10369 10368" fill="none" xmlns="http://www.w3.org/2000/svg">
<path d="M10369 5184C10369 8047.04 8048.04 10368 5185 10368C2321.96 10368 1 8047.04 1 5184C1 2320.96 2321.96 0 5185 0C8048.04 0 10369 2320.96 10369 5184Z" fill="url(#paint0_radial_72_274)"/>
<path d="M5114 69.9999C5114 31.34 5145.34 0 5184 0C5222.66 0 5254 31.3401 5254 70V10298C5254 10336.7 5222.66 10368 5184 10368C5145.34 10368 5114 10336.7 5114 10298V69.9999Z" fill="#5A5A5A"/>
<path d="M7680.38 720.145C7699.71 686.665 7742.52 675.193 7776 694.523C7809.48 713.853 7820.95 756.665 7801.62 790.145L2687.62 9647.85C2668.29 9681.33 2625.48 9692.8 2592 9673.47C2558.52 9654.14 2547.05 9611.33 2566.38 9577.85L7680.38 720.145Z" fill="#5A5A5A"/>
<path d="M720.147 2687.62C686.667 2668.29 675.195 2625.48 694.525 2592C713.855 2558.52 756.667 2547.05 790.147 2566.38L9647.85 7680.38C9681.33 7699.71 9692.81 7742.52 9673.48 7776C9654.15 7809.48 9611.33 7820.95 9577.85 7801.62L720.147 2687.62Z" fill="#5A5A5A"/>
<path d="M9577.85 2566.38C9611.33 2547.05 9654.15 2558.52 9673.48 2592C9692.81 2625.48 9681.33 2668.29 9647.85 2687.62L790.147 7801.62C756.667 7820.95 713.855 7809.48 694.525 7776C675.195 7742.52 686.667 7699.71 720.147 7680.38L9577.85 2566.38Z" fill="#5A5A5A"/>
<path d="M70.0019 5254C31.342 5254 0.00195312 5222.66 0.00195312 5184C0.00195313 5145.34 31.342 5114 70.002 5114H10298C10336.7 5114 10368 5145.34 10368 5184C10368 5222.66 10336.7 5254 10298 5254H70.0019Z" fill="#5A5A5A"/>
<path d="M2566.38 790.145C2547.05 756.665 2558.52 713.853 2592 694.523C2625.48 675.193 2668.29 686.665 2687.62 720.145L7801.62 9577.85C7820.95 9611.33 7809.48 9654.14 7776 9673.47C7742.52 9692.8 7699.71 9681.33 7680.38 9647.85L2566.38 790.145Z" fill="#5A5A5A"/>
<path d="M9597 5254C9597 7690.68 7621.68 9666 5185 9666C2748.32 9666 773 7690.68 773 5254C773 2817.32 2748.32 842 5185 842C7621.68 842 9597 2817.32 9597 5254Z" fill="url(#paint1_radial_72_274)"/>
<defs>
<radialGradient id="paint0_radial_72_274" cx="0" cy="0" r="1" gradientUnits="userSpaceOnUse" gradientTransform="translate(5184.5 5184) rotate(90) scale(5184 5184.5)">
<stop stop-color="#3D3C3C"/>
<stop offset="1" stop-color="#D9D9D9"/>
</radialGradient>
<radialGradient id="paint1_radial_72_274" cx="0" cy="0" r="1" gradientUnits="userSpaceOnUse" gradientTransform="translate(5185 5254) rotate(90) scale(4412 4412)">
<stop stop-color="white"/>
<stop offset="1" stop-color="#E7E7E7"/>
</radialGradient>
</defs>
</svg>
